<svg width="150" height="50" viewBox="0 0 150 50" fill="none" xmlns="http://www.w3.org/2000/svg">
<path d="M56.5773 34.6668C54.5258 34.6668 52.7523 34.2398 51.2568 33.3856C49.7805 32.5315 48.6398 31.3803 47.8345 29.932C47.0484 28.4837 46.6554 26.8683 46.6554 25.0857C46.6554 23.2846 47.0484 21.6692 47.8345 20.2395C48.6398 18.7912 49.7805 17.64 51.2568 16.7858C52.7523 15.9317 54.5258 15.5046 56.5773 15.5046C57.9577 15.5046 59.2039 15.7089 60.3159 16.1174C61.428 16.5073 62.3962 17.0644 63.2206 17.7885C64.0642 18.5127 64.7544 19.3575 65.2913 20.323L60.9774 23.9159C60.8048 23.3032 60.5173 22.7276 60.1146 22.1891C59.7312 21.6506 59.2423 21.2143 58.6479 20.8801C58.0536 20.5273 57.3442 20.3509 56.5197 20.3509C55.6378 20.3509 54.8709 20.5551 54.219 20.9636C53.5863 21.3536 53.0974 21.9013 52.7523 22.6069C52.4264 23.3125 52.2634 24.1388 52.2634 25.0857C52.2634 26.0141 52.4264 26.8404 52.7523 27.5646C53.0974 28.2701 53.5863 28.8272 54.219 29.2357C54.8709 29.6256 55.6378 29.8206 56.5197 29.8206C57.3442 29.8206 58.0536 29.6535 58.6479 29.3192C59.2423 28.9664 59.7312 28.5208 60.1146 27.9823C60.5173 27.4253 60.8048 26.8497 60.9774 26.2555L65.2913 29.8484C64.7544 30.814 64.0642 31.6588 63.2206 32.3829C62.3962 33.1071 61.428 33.6734 60.3159 34.0819C59.2039 34.4719 57.9577 34.6668 56.5773 34.6668Z" fill="#000014"/>
<path d="M76.4322 34.6668C74.9751 34.6668 73.633 34.4254 72.406 33.9427C71.1981 33.4413 70.1532 32.7543 69.2712 31.8816C68.3893 31.0089 67.7087 29.997 67.2293 28.8457C66.75 27.676 66.5104 26.4226 66.5104 25.0857C66.5104 23.7488 66.75 22.5048 67.2293 21.3536C67.7087 20.1838 68.3893 19.1625 69.2712 18.2898C70.1532 17.4171 71.1981 16.7394 72.406 16.2566C73.633 15.7553 74.9751 15.5046 76.4322 15.5046C77.9085 15.5046 79.2506 15.7553 80.4585 16.2566C81.6664 16.7394 82.7113 17.4171 83.5932 18.2898C84.4752 19.1625 85.1558 20.1838 85.6351 21.3536C86.1144 22.5048 86.3541 23.7488 86.3541 25.0857C86.3541 26.4226 86.1144 27.676 85.6351 28.8457C85.1558 29.997 84.4752 31.0089 83.5932 31.8816C82.7113 32.7543 81.6664 33.4413 80.4585 33.9427C79.2506 34.4254 77.9085 34.6668 76.4322 34.6668ZM76.4322 29.7927C77.4292 29.7927 78.2536 29.5885 78.9055 29.18C79.5766 28.7715 80.0751 28.2144 80.401 27.5089C80.7269 26.7847 80.8899 25.977 80.8899 25.0857C80.8899 24.1759 80.7269 23.3682 80.401 22.6626C80.0751 21.957 79.5766 21.4 78.9055 20.9915C78.2536 20.583 77.4292 20.3787 76.4322 20.3787C75.4353 20.3787 74.6012 20.583 73.9302 20.9915C73.2783 21.4 72.7894 21.957 72.4635 22.6626C72.1376 23.3682 71.9746 24.1759 71.9746 25.0857C71.9746 25.977 72.1376 26.7847 72.4635 27.5089C72.7894 28.2144 73.2783 28.7715 73.9302 29.18C74.6012 29.5885 75.4353 29.7927 76.4322 29.7927Z" fill="#000014"/>
<path d="M98.7286 27.7595H91.4238V23.7488H98.6135C99.112 23.7488 99.5147 23.6838 99.8214 23.5539C100.147 23.4239 100.387 23.2289 100.54 22.969C100.713 22.6905 100.799 22.3655 100.799 21.9942C100.799 21.6042 100.713 21.2793 100.54 21.0193C100.387 20.7594 100.147 20.5644 99.8214 20.4344C99.5147 20.3045 99.112 20.2395 98.6135 20.2395H91.4238V15.7832H98.556C100.051 15.7832 101.374 15.9874 102.525 16.3959C103.694 16.7858 104.605 17.4171 105.257 18.2898C105.928 19.144 106.263 20.258 106.263 21.6321C106.263 23.0247 105.918 24.1388 105.228 24.9743C104.557 25.7913 103.646 26.3669 102.496 26.7011C101.365 27.0354 100.109 27.1839 98.7286 27.1468V27.7595ZM94.501 34.444H89.3244V15.7832H94.501V34.444ZM107.069 34.444H101.173L97.9809 29.4585C97.5974 28.8457 97.1852 28.4094 96.7442 28.1494C96.3032 27.8895 95.6897 27.7595 94.9036 27.7595L99.3038 26.924C100.262 26.9982 101.039 27.1932 101.633 27.5089C102.228 27.8059 102.726 28.1866 103.129 28.6508C103.531 29.115 103.924 29.6442 104.308 30.2383L107.069 34.444Z" fill="#000014"/>
<path d="M117.459 29.6813H111.419V25.225H117.516C118.187 25.225 118.743 25.1321 119.184 24.9465C119.644 24.7422 119.98 24.4544 120.191 24.0831C120.421 23.7117 120.536 23.2568 120.536 22.7183C120.536 22.1613 120.421 21.7063 120.191 21.3536C119.98 20.9822 119.644 20.7037 119.184 20.518C118.743 20.3323 118.187 20.2395 117.516 20.2395H111.419V15.7832H117.459C119.088 15.7832 120.545 16.0153 121.83 16.4795C123.115 16.9437 124.131 17.6864 124.878 18.7076C125.626 19.7103 126 21.0472 126 22.7183C126 24.3894 125.626 25.7356 124.878 26.7568C124.15 27.7781 123.143 28.5208 121.859 28.985C120.574 29.4492 119.107 29.6813 117.459 29.6813ZM114.496 34.444H109.32V15.7832H114.496V34.444Z" fill="#000014"/>
<path d="M40.4804 34.6723H43.6491C44.1737 34.6723 44.5989 34.264 44.5989 33.7603V16.2397C44.5989 15.736 44.1737 15.3276 43.6491 15.3276H40.1175C39.5929 15.3276 39.1677 15.736 39.1677 16.2397V25.3784C39.1677 25.4432 39.1129 25.4958 39.0454 25.4958C39.0049 25.4958 38.9671 25.4766 38.9443 25.4445L32.6292 16.5542C32.3659 16.1835 31.762 16.3625 31.762 16.8112V22.9262C31.762 23.1109 31.8204 23.2912 31.9295 23.4434L39.6982 34.2775C39.8754 34.5247 40.1679 34.6723 40.4804 34.6723Z" fill="#000014"/>
<path d="M29.4427 33.7603V26.8844V23.4492C29.4427 22.9455 29.0175 22.5372 28.4929 22.5372H24.9503C24.4257 22.5372 24.0005 22.9455 24.0005 23.4492V33.7603C24.0005 34.264 24.4257 34.6723 24.9503 34.6723H28.4929C29.0175 34.6723 29.4427 34.264 29.4427 33.7603Z" fill="#000014"/>
<path d="M24.9503 15.3276H28.4929C29.0175 15.3276 29.4427 15.736 29.4427 16.2397V19.6307C29.4427 20.1344 29.0175 20.5428 28.4929 20.5428H24.9503C24.4257 20.5428 24.0005 20.1344 24.0005 19.6307V16.2397C24.0005 15.736 24.4257 15.3276 24.9503 15.3276Z" fill="#000014"/>
<rect x="1" y="1" width="148" height="48" rx="24" stroke="#000014" stroke-width="1.17767"/>
</svg>
