<svg width="776" height="205" viewBox="0 0 776 205" fill="none" xmlns="http://www.w3.org/2000/svg">
<path d="M285.975 156.745C274.705 156.745 264.962 154.356 256.746 149.579C248.636 144.803 242.368 138.364 237.945 130.264C233.626 122.165 231.467 113.13 231.467 103.161C231.467 93.0883 233.626 84.0538 237.945 76.0578C242.368 67.958 248.636 61.5197 256.746 56.7429C264.962 51.966 274.705 49.5776 285.975 49.5776C293.559 49.5776 300.405 50.7199 306.514 53.0045C312.623 55.1852 317.942 58.3005 322.471 62.3504C327.106 66.4004 330.898 71.1253 333.847 76.5251L310.148 96.619C309.2 93.1921 307.62 89.9729 305.408 86.9615C303.301 83.95 300.616 81.5097 297.35 79.6405C294.085 77.6674 290.188 76.6809 285.659 76.6809C280.814 76.6809 276.6 77.8232 273.019 80.1078C269.543 82.2885 266.858 85.3519 264.962 89.298C263.171 93.244 262.276 97.8651 262.276 103.161C262.276 108.353 263.171 112.974 264.962 117.024C266.858 120.97 269.543 124.086 273.019 126.37C276.6 128.551 280.814 129.641 285.659 129.641C290.188 129.641 294.085 128.707 297.35 126.838C300.616 124.865 303.301 122.372 305.408 119.361C307.62 116.245 309.2 113.026 310.148 109.703L333.847 129.797C330.898 135.197 327.106 139.922 322.471 143.972C317.942 148.022 312.623 151.189 306.514 153.474C300.405 155.654 293.559 156.745 285.975 156.745Z" fill="#000014"/>
<path d="M395.053 156.745C387.048 156.745 379.674 155.395 372.933 152.695C366.298 149.891 360.557 146.049 355.712 141.168C350.867 136.287 347.128 130.628 344.494 124.19C341.861 117.647 340.545 110.638 340.545 103.161C340.545 95.6844 341.861 88.7268 344.494 82.2885C347.128 75.7463 350.867 70.0349 355.712 65.1542C360.557 60.2736 366.298 56.4833 372.933 53.7833C379.674 50.9795 387.048 49.5776 395.053 49.5776C403.163 49.5776 410.536 50.9795 417.172 53.7833C423.807 56.4833 429.548 60.2736 434.393 65.1542C439.238 70.0349 442.977 75.7463 445.611 82.2885C448.244 88.7268 449.561 95.6844 449.561 103.161C449.561 110.638 448.244 117.647 445.611 124.19C442.977 130.628 439.238 136.287 434.393 141.168C429.548 146.049 423.807 149.891 417.172 152.695C410.536 155.395 403.163 156.745 395.053 156.745ZM395.053 129.486C400.53 129.486 405.059 128.343 408.64 126.059C412.327 123.774 415.065 120.659 416.856 116.713C418.646 112.663 419.542 108.146 419.542 103.161C419.542 98.0728 418.646 93.5556 416.856 89.6095C415.065 85.6634 412.327 82.5481 408.64 80.2635C405.059 77.979 400.53 76.8367 395.053 76.8367C389.575 76.8367 384.994 77.979 381.307 80.2635C377.726 82.5481 375.04 85.6634 373.249 89.6095C371.459 93.5556 370.563 98.0728 370.563 103.161C370.563 108.146 371.459 112.663 373.249 116.713C375.04 120.659 377.726 123.774 381.307 126.059C384.994 128.343 389.575 129.486 395.053 129.486Z" fill="#000014"/>
<path d="M517.542 118.115H477.412V95.6844H516.911C519.649 95.6844 521.861 95.3209 523.546 94.594C525.337 93.8671 526.653 92.7767 527.496 91.3229C528.444 89.7653 528.918 87.948 528.918 85.8711C528.918 83.6904 528.444 81.8731 527.496 80.4193C526.653 78.9655 525.337 77.8751 523.546 77.1482C521.861 76.4213 519.649 76.0578 516.911 76.0578H477.412V51.1353H516.595C524.81 51.1353 532.078 52.2776 538.398 54.5621C544.823 56.7429 549.826 60.2736 553.407 65.1542C557.094 69.931 558.937 76.1617 558.937 83.8461C558.937 91.6344 557.041 97.8651 553.249 102.538C549.563 107.107 544.56 110.326 538.24 112.196C532.025 114.065 525.126 114.895 517.542 114.688V118.115ZM494.317 155.498H465.878V51.1353H494.317V155.498ZM563.361 155.498H530.972L513.435 127.616C511.328 124.19 509.063 121.749 506.641 120.295C504.218 118.842 500.848 118.115 496.529 118.115L520.702 113.442C525.969 113.857 530.235 114.947 533.5 116.713C536.765 118.374 539.504 120.503 541.716 123.099C543.928 125.695 546.087 128.655 548.193 131.978L563.361 155.498Z" fill="#000014"/>
<path d="M620.44 128.863H587.261V103.94H620.756C624.442 103.94 627.497 103.421 629.92 102.382C632.447 101.24 634.291 99.6304 635.449 97.5536C636.713 95.4767 637.345 92.9325 637.345 89.921C637.345 86.8057 636.713 84.2615 635.449 82.2885C634.291 80.2116 632.447 78.6539 629.92 77.6155C627.497 76.5771 624.442 76.0578 620.756 76.0578H587.261V51.1353H620.44C629.393 51.1353 637.398 52.4333 644.455 55.0294C651.512 57.6255 657.095 61.7793 661.202 67.4907C665.31 73.0983 667.364 80.5751 667.364 89.921C667.364 99.267 665.31 106.796 661.202 112.507C657.2 118.218 651.67 122.372 644.613 124.968C637.556 127.564 629.498 128.863 620.44 128.863ZM604.167 155.498H575.728V51.1353H604.167V155.498Z" fill="#000014"/>
<path d="M197.543 156.776H214.951C217.833 156.776 220.169 154.492 220.169 151.675V53.689C220.169 50.872 217.833 48.5884 214.951 48.5884H195.549C192.667 48.5884 190.331 50.872 190.331 53.689V104.798C190.331 105.161 190.03 105.455 189.659 105.455C189.437 105.455 189.229 105.348 189.104 105.168L154.411 55.4481C152.964 53.375 149.646 54.3758 149.646 56.8851V91.0841C149.646 92.1172 149.967 93.1259 150.567 93.9767L193.245 154.568C194.219 155.95 195.826 156.776 197.543 156.776Z" fill="#000014"/>
<path d="M136.905 151.675V113.221V94.0092C136.905 91.1922 134.569 88.9086 131.687 88.9086H112.225C109.343 88.9086 107.007 91.1922 107.007 94.0092V151.675C107.007 154.492 109.343 156.776 112.225 156.776H131.687C134.569 156.776 136.905 154.492 136.905 151.675Z" fill="#000014"/>
<path d="M112.225 48.5884H131.687C134.569 48.5884 136.905 50.872 136.905 53.689V72.654C136.905 75.471 134.569 77.7546 131.687 77.7546H112.225C109.343 77.7546 107.007 75.471 107.007 72.654V53.689C107.007 50.872 109.343 48.5884 112.225 48.5884Z" fill="#000014"/>
<path fill-rule="evenodd" clip-rule="evenodd" d="M0 102.5C0 46.1089 45.7141 0.394775 102.105 0.394775H673.895C730.286 0.394775 776 46.1089 776 102.5C776 158.891 730.286 204.605 673.895 204.605H102.105C45.7141 204.605 0 158.891 0 102.5ZM102.105 5.29583C48.4209 5.29583 4.90105 48.8156 4.90105 102.5C4.90105 156.184 48.4209 199.704 102.105 199.704H673.895C727.579 199.704 771.099 156.184 771.099 102.5C771.099 48.8156 727.579 5.29583 673.895 5.29583H102.105Z" fill="#000014"/>
</svg>
