<svg width="20" height="20" viewBox="0 0 20 20" fill="none" xmlns="http://www.w3.org/2000/svg">
<g clip-path="url(#clip0_110_9948)">
<path d="M11.9866 11.9834C12.4264 13.2983 12.7215 14.6571 12.8666 16.0359L12.92 16.5726L13.025 17.7651C11.7815 18.2495 10.4398 18.4281 9.11294 18.286C7.78604 18.1439 6.51267 17.6852 5.39996 16.9484L7.13329 15.2093L7.33829 15.0093C8.83246 13.5693 10.18 12.6134 11.8275 12.0376L11.9866 11.9834ZM17.0616 11.3309L17.4066 11.3334L18.2241 11.3451C18.0397 12.4735 17.6249 13.5517 17.0057 14.5129C16.3865 15.474 15.5761 16.2974 14.625 16.9318L14.58 16.4276C14.43 14.7134 14.1216 13.1293 13.6108 11.5826C14.4808 11.4309 15.4466 11.3509 16.5516 11.3343L17.0608 11.3309H17.0616ZM10.5041 8.68011C10.8237 9.24879 11.1162 9.83222 11.3808 10.4284C9.48413 11.0701 7.92913 12.1393 6.26079 13.7343L5.96496 14.0209L4.10163 15.8876C2.6081 14.3913 1.73916 12.3832 1.67079 10.2701L1.66663 10.0001L1.66996 9.79178H2.58329L2.97246 9.79011C5.92829 9.76845 8.26913 9.48428 10.4208 8.71095L10.5041 8.68011ZM18.3275 9.68178L17.065 9.66511C15.515 9.66261 14.19 9.76845 13.0108 10.0001C12.7215 9.32303 12.398 8.66107 12.0416 8.01678C13.2025 7.43761 14.3391 6.68595 15.5241 5.72511L15.8808 5.43011L16.5608 4.86178C17.5762 6.1585 18.1846 7.72702 18.3091 9.36928L18.3275 9.68178ZM6.10829 2.63178L7.16329 3.90011C8.11746 5.06511 8.93079 6.16095 9.62079 7.22095C7.73746 7.85928 5.67163 8.09761 3.05163 8.12178L2.58329 8.12511H1.87996C2.1491 6.95949 2.66604 5.86548 3.39565 4.91744C4.12527 3.96941 5.05044 3.1904 6.10829 2.63178ZM14.1666 2.78345C14.6083 3.03845 15.0216 3.33095 15.4025 3.65511L14.5483 4.36928C13.3991 5.30928 12.3083 6.03011 11.1866 6.57678C10.445 5.41178 9.56746 4.21345 8.53496 2.94511L8.13996 2.46678L7.73579 1.98011C8.80703 1.67774 9.92799 1.59304 11.0325 1.73102C12.137 1.86899 13.2027 2.22684 14.1666 2.78345Z" fill="white"/>
</g>
<defs>
<clipPath id="clip0_110_9948">
<rect width="20" height="20" fill="white"/>
</clipPath>
</defs>
</svg>
