<svg width="65" height="46" viewBox="0 0 65 46" fill="none" xmlns="http://www.w3.org/2000/svg">
<path d="M22.3047 27.2422C21.276 25.9401 20.7617 24.1921 20.7617 21.998C20.7617 19.804 21.276 18.056 22.3047 16.7539C23.3333 15.4518 24.7201 14.8008 26.4648 14.8008C28.2096 14.8008 29.5931 15.4518 30.6152 16.7539C31.6439 18.056 32.1582 19.804 32.1582 21.998C32.1582 24.1921 31.6439 25.9401 30.6152 27.2422C29.5931 28.5443 28.2096 29.1953 26.4648 29.1953C24.7201 29.1953 23.3333 28.5443 22.3047 27.2422ZM29.1211 25.8164C29.7461 24.8268 30.0586 23.554 30.0586 21.998C30.0586 20.4421 29.7461 19.1693 29.1211 18.1797C28.4961 17.1901 27.6107 16.6953 26.4648 16.6953C25.2995 16.6953 24.4043 17.1901 23.7793 18.1797C23.1673 19.1497 22.8613 20.4225 22.8613 21.998C22.8613 23.5866 23.1673 24.8659 23.7793 25.8359C24.3978 26.8125 25.293 27.3008 26.4648 27.3008C27.6107 27.3008 28.4961 26.806 29.1211 25.8164ZM33.2129 24.9961L35.2148 24.0977C35.2604 25.0221 35.5827 25.7708 36.1816 26.3438C36.7806 26.9167 37.5391 27.2031 38.457 27.2031C39.3164 27.2031 40.026 26.9362 40.5859 26.4023C41.1523 25.8685 41.4355 25.1816 41.4355 24.3418C41.4355 23.4954 41.1621 22.8118 40.6152 22.291C40.0684 21.7637 39.3685 21.5 38.5156 21.5C37.7148 21.5 37.0801 21.7344 36.6113 22.2031L35.4102 20.6992L39.8145 16.998H33.8086V14.9961H42.9102V16.6953L38.8086 20.1035C39.0365 20.0579 39.2578 20.0352 39.4727 20.0352C39.9609 20.0352 40.446 20.1361 40.9277 20.3379C41.4095 20.5332 41.8424 20.8066 42.2266 21.1582C42.6172 21.5098 42.9329 21.9622 43.1738 22.5156C43.4147 23.0625 43.5352 23.6582 43.5352 24.3027C43.5352 25.735 43.0566 26.9102 42.0996 27.8281C41.1491 28.7396 39.9349 29.1953 38.457 29.1953C37.0312 29.1953 35.8529 28.8112 34.9219 28.043C33.9974 27.2747 33.4277 26.2591 33.2129 24.9961Z" fill="white"/>
<rect x="0.5" y="0.5" width="64" height="45" rx="22.5" stroke="white"/>
</svg>
