<svg width="141" height="44" viewBox="0 0 141 44" fill="none" xmlns="http://www.w3.org/2000/svg">
<g clip-path="url(#clip0_110_9002)">
<path d="M52.2574 30.9947C50.226 30.9947 48.4699 30.5974 46.9891 29.8026C45.5273 29.0078 44.3977 27.9367 43.6003 26.589C42.8219 25.2414 42.4327 23.7383 42.4327 22.0796C42.4327 20.4037 42.8219 18.9006 43.6003 17.5703C44.3977 16.2226 45.5273 15.1514 46.9891 14.3567C48.4699 13.5619 50.226 13.1646 52.2574 13.1646C53.6243 13.1646 54.8583 13.3546 55.9594 13.7347C57.0606 14.0975 58.0193 14.6158 58.8356 15.2897C59.671 15.9635 60.3544 16.7496 60.886 17.648L56.6144 20.9912C56.4436 20.421 56.1588 19.8854 55.7601 19.3844C55.3804 18.8833 54.8963 18.4773 54.3078 18.1663C53.7192 17.8381 53.0168 17.6739 52.2004 17.6739C51.3271 17.6739 50.5677 17.864 49.9223 18.2441C49.2958 18.6069 48.8116 19.1166 48.4699 19.7731C48.1472 20.4297 47.9858 21.1985 47.9858 22.0796C47.9858 22.9435 48.1472 23.7124 48.4699 24.3862C48.8116 25.0427 49.2958 25.561 49.9223 25.9411C50.5677 26.3039 51.3271 26.4854 52.2004 26.4854C53.0168 26.4854 53.7192 26.3299 54.3078 26.0189C54.8963 25.6906 55.3804 25.2759 55.7601 24.7749C56.1588 24.2566 56.4436 23.721 56.6144 23.1681L60.886 26.5113C60.3544 27.4097 59.671 28.1958 58.8356 28.8696C58.0193 29.5434 57.0606 30.0704 55.9594 30.4505C54.8583 30.8133 53.6243 30.9947 52.2574 30.9947Z" fill="#000014"/>
<path d="M71.9178 30.9947C70.475 30.9947 69.146 30.7701 67.931 30.3209C66.735 29.8544 65.7003 29.2152 64.827 28.4031C63.9537 27.5911 63.2797 26.6495 62.8051 25.5783C62.3305 24.4898 62.0932 23.3236 62.0932 22.0796C62.0932 20.8357 62.3305 19.6781 62.8051 18.6069C63.2797 17.5184 63.9537 16.5682 64.827 15.7561C65.7003 14.9441 66.735 14.3135 67.931 13.8643C69.146 13.3978 70.475 13.1646 71.9178 13.1646C73.3797 13.1646 74.7086 13.3978 75.9047 13.8643C77.1007 14.3135 78.1354 14.9441 79.0087 15.7561C79.882 16.5682 80.5559 17.5184 81.0306 18.6069C81.5052 19.6781 81.7425 20.8357 81.7425 22.0796C81.7425 23.3236 81.5052 24.4898 81.0306 25.5783C80.5559 26.6495 79.882 27.5911 79.0087 28.4031C78.1354 29.2152 77.1007 29.8544 75.9047 30.3209C74.7086 30.7701 73.3797 30.9947 71.9178 30.9947ZM71.9178 26.4594C72.905 26.4594 73.7214 26.2694 74.3669 25.8893C75.0313 25.5092 75.525 24.9909 75.8477 24.3343C76.1704 23.6605 76.3318 22.909 76.3318 22.0796C76.3318 21.2331 76.1704 20.4815 75.8477 19.825C75.525 19.1684 75.0313 18.6501 74.3669 18.27C73.7214 17.8899 72.905 17.6998 71.9178 17.6998C70.9306 17.6998 70.1048 17.8899 69.4403 18.27C68.7948 18.6501 68.3107 19.1684 67.988 19.825C67.6652 20.4815 67.5039 21.2331 67.5039 22.0796C67.5039 22.909 67.6652 23.6605 67.988 24.3343C68.3107 24.9909 68.7948 25.5092 69.4403 25.8893C70.1048 26.2694 70.9306 26.4594 71.9178 26.4594Z" fill="#000014"/>
<path d="M93.9957 24.5676H86.7625V20.8357H93.8818C94.3754 20.8357 94.7741 20.7752 95.0779 20.6543C95.4006 20.5333 95.6379 20.3519 95.7898 20.11C95.9606 19.8509 96.0461 19.5485 96.0461 19.203C96.0461 18.8401 95.9606 18.5378 95.7898 18.2959C95.6379 18.054 95.4006 17.8726 95.0779 17.7517C94.7741 17.6307 94.3754 17.5703 93.8818 17.5703H86.7625V13.4237H93.8249C95.3057 13.4237 96.6156 13.6138 97.7547 13.9939C98.9128 14.3567 99.8146 14.9441 100.46 15.7561C101.125 16.5509 101.457 17.5875 101.457 18.8661C101.457 20.1619 101.115 21.1985 100.432 21.976C99.7671 22.7362 98.8653 23.2718 97.7262 23.5828C96.6061 23.8938 95.3626 24.032 93.9957 23.9974V24.5676ZM89.8096 30.7874H84.6837V13.4237H89.8096V30.7874ZM102.254 30.7874H96.4163L93.2553 26.1485C92.8756 25.5783 92.4674 25.1723 92.0308 24.9304C91.5941 24.6885 90.9866 24.5676 90.2082 24.5676L94.5653 23.7901C95.5145 23.8592 96.2834 24.0406 96.8719 24.3343C97.4605 24.6108 97.9541 24.965 98.3527 25.3969C98.7514 25.8288 99.1406 26.3212 99.5203 26.8741L102.254 30.7874Z" fill="#000014"/>
<path d="M112.542 26.3558H106.562V22.2092H112.599C113.264 22.2092 113.814 22.1228 114.251 21.9501C114.706 21.76 115.039 21.4922 115.248 21.1467C115.475 20.8011 115.589 20.3778 115.589 19.8768C115.589 19.3585 115.475 18.9352 115.248 18.6069C115.039 18.2614 114.706 18.0022 114.251 17.8294C113.814 17.6567 113.264 17.5703 112.599 17.5703H106.562V13.4237H112.542C114.156 13.4237 115.599 13.6397 116.871 14.0716C118.143 14.5035 119.149 15.1946 119.889 16.1449C120.63 17.0779 121 18.3218 121 19.8768C121 21.4317 120.63 22.6844 119.889 23.6346C119.168 24.5849 118.171 25.2759 116.899 25.7079C115.627 26.1398 114.175 26.3558 112.542 26.3558ZM109.609 30.7874H104.483V13.4237H109.609V30.7874Z" fill="#000014"/>
<path d="M35.1407 31H38.2783C38.7977 31 39.2187 30.6201 39.2187 30.1514V13.8486C39.2187 13.3799 38.7977 13 38.2783 13H34.7812C34.2618 13 33.8407 13.3799 33.8407 13.8486V22.3521C33.8407 22.4124 33.7865 22.4613 33.7196 22.4613C33.6796 22.4613 33.6422 22.4435 33.6196 22.4136L27.3663 14.1413C27.1056 13.7964 26.5076 13.9629 26.5076 14.3804V20.0703C26.5076 20.2422 26.5655 20.41 26.6735 20.5516L34.366 30.6326C34.5415 30.8626 34.8312 31 35.1407 31Z" fill="#000014"/>
<path d="M25.3889 30.1514V22.6662V19.4698C25.3889 19.0011 24.9678 18.6211 24.4484 18.6211H20.9405C20.4211 18.6211 20 19.0011 20 19.4698V30.1514C20 30.6201 20.4211 31 20.9405 31H24.4484C24.9678 31 25.3889 30.6201 25.3889 30.1514Z" fill="#000014"/>
<path d="M20.9405 13H24.4484C24.9678 13 25.3889 13.3799 25.3889 13.8486V17.004C25.3889 17.4727 24.9678 17.8526 24.4484 17.8526H20.9405C20.4211 17.8526 20 17.4727 20 17.004V13.8486C20 13.3799 20.4211 13 20.9405 13Z" fill="#000014"/>
</g>
<rect x="0.75" y="0.75" width="139.5" height="42.5" rx="21.25" stroke="#000014" stroke-width="1.5"/>
<defs>
<clipPath id="clip0_110_9002">
<rect width="101" height="18" fill="white" transform="translate(20 13)"/>
</clipPath>
</defs>
</svg>
