<svg width="52" height="50" viewBox="0 0 52 50" fill="none" xmlns="http://www.w3.org/2000/svg">
<path d="M18.4603 34.6521C16.9806 34.6463 15.7074 34.281 14.6407 33.5561C13.5797 32.8312 12.7624 31.7812 12.1889 30.4062C11.6211 29.0312 11.3401 27.3771 11.3458 25.444C11.3458 23.5167 11.6297 21.8741 12.1975 20.5164C12.771 19.1586 13.5883 18.1259 14.6493 17.4182C15.716 16.7048 16.9864 16.3481 18.4603 16.3481C19.9343 16.3481 21.2018 16.7048 22.2628 17.4182C23.3295 18.1316 24.1497 19.1672 24.7232 20.525C25.2967 21.877 25.5806 23.5167 25.5749 25.444C25.5749 27.3829 25.2881 29.0398 24.7146 30.4148C24.1468 31.7898 23.3324 32.8398 22.2714 33.5647C21.2104 34.2896 19.94 34.6521 18.4603 34.6521ZM18.4603 31.554C19.4697 31.554 20.2755 31.0448 20.8777 30.0265C21.4799 29.0081 21.7782 27.4807 21.7724 25.444C21.7724 24.1035 21.6348 22.9874 21.3595 22.0956C21.0899 21.2039 20.7057 20.5336 20.2067 20.0849C19.7135 19.6361 19.1314 19.4117 18.4603 19.4117C17.4567 19.4117 16.6537 19.9152 16.0515 20.922C15.4493 21.9288 15.1454 23.4361 15.1396 25.444C15.1396 26.8018 15.2744 27.9352 15.544 28.8442C15.8193 29.7474 16.2064 30.4263 16.7054 30.8808C17.2043 31.3296 17.7893 31.554 18.4603 31.554Z" fill="white"/>
<path d="M28.231 34.2637V31.5712L34.5025 25.7461C35.0359 25.2283 35.4832 24.7623 35.8445 24.348C36.2116 23.9338 36.4897 23.5282 36.679 23.1312C36.8683 22.7285 36.9629 22.2941 36.9629 21.8281C36.9629 21.3103 36.8453 20.8644 36.6102 20.4905C36.375 20.1108 36.0539 19.8202 35.6467 19.6189C35.2395 19.4117 34.7778 19.3082 34.2616 19.3082C33.7225 19.3082 33.2522 19.4175 32.8507 19.6361C32.4493 19.8547 32.1396 20.1683 31.9216 20.5768C31.7037 20.9853 31.5947 21.4714 31.5947 22.0352H28.059C28.059 20.8788 28.3199 19.8749 28.8418 19.0234C29.3637 18.1719 30.095 17.5132 31.0355 17.0472C31.9761 16.5812 33.0601 16.3481 34.2874 16.3481C35.5492 16.3481 36.6475 16.5725 37.5823 17.0213C38.5229 17.4643 39.2541 18.0799 39.776 18.8681C40.2979 19.6563 40.5589 20.5595 40.5589 21.5778C40.5589 22.2452 40.427 22.904 40.1632 23.5541C39.9051 24.2042 39.4434 24.9262 38.7781 25.7202C38.1128 26.5084 37.1751 27.4548 35.965 28.5594L33.3927 31.0879V31.2088H40.7912V34.2637H28.231Z" fill="white"/>
<rect x="1" y="1.22754" width="49.4526" height="48" rx="24" stroke="white" stroke-width="1.19373"/>
</svg>
