<svg width="203" height="50" viewBox="0 0 203 50" fill="none" xmlns="http://www.w3.org/2000/svg">
<path d="M39.7396 25.7471H32.2982V32.2275H28.4545V15.4229H32.2982V22.2666H39.7396V15.4229H43.5717V32.2275H39.7396V25.7471ZM45.9037 28.8877C45.9037 27.708 46.2943 26.8096 47.0756 26.1924C47.8568 25.5752 48.9701 25.2666 50.4154 25.2666C51.0092 25.2666 51.6342 25.3408 52.2904 25.4893L53.099 25.6768V25.1025C53.099 24.5557 52.9232 24.1299 52.5717 23.8252C52.2279 23.5205 51.7396 23.3682 51.1068 23.3682C50.5131 23.3682 50.0287 23.5049 49.6537 23.7783C49.2787 24.0518 49.0365 24.4268 48.9271 24.9033L45.8802 24.0947C46.2318 23.0088 46.8607 22.1572 47.767 21.54C48.681 20.9229 49.8021 20.6143 51.1302 20.6143C52.9427 20.6143 54.3021 21.0127 55.2084 21.8096C56.1224 22.5986 56.5795 23.7588 56.5795 25.29V32.2275H53.3451V30.6689C52.8685 31.3252 52.349 31.79 51.7865 32.0635C51.224 32.3291 50.5013 32.4619 49.6185 32.4619C48.5873 32.4619 47.7084 32.1299 46.9818 31.4658C46.2631 30.8018 45.9037 29.9424 45.9037 28.8877ZM53.099 28.1494V28.0791L52.642 27.8799C52.0951 27.6611 51.5443 27.5518 50.9896 27.5518C50.5209 27.5518 50.1537 27.6572 49.8881 27.8682C49.6302 28.0713 49.5013 28.3643 49.5013 28.7471C49.5013 29.1143 49.6381 29.4033 49.9115 29.6143C50.1849 29.8174 50.5677 29.9189 51.0599 29.9189C51.6537 29.9189 52.142 29.7588 52.5248 29.4385C52.9076 29.1104 53.099 28.6807 53.099 28.1494ZM59.3685 32.2275V20.8486H62.849V28.9932H66.2006V20.8486H69.681V28.9932H73.0443V20.8486H76.5248V32.2275H59.3685ZM79.3138 32.2275V20.8486H82.7943V28.3369L86.9896 20.8486H91.7006V32.2275H88.2201V24.7393L84.0131 32.2275H79.3138ZM108.142 20.8486H111.74L103.9 36.9854H100.29L103.337 30.7158L98.7318 20.8486H102.458L105.212 26.8721L108.142 20.8486ZM118.349 29.2275C119.107 29.2275 119.708 29.0127 120.154 28.583C120.599 28.1455 120.869 27.5596 120.962 26.8252L124.326 27.9854C123.536 30.9697 121.544 32.4619 118.349 32.4619C116.49 32.4619 114.986 31.9111 113.837 30.8096C112.689 29.708 112.115 28.2588 112.115 26.4619C112.115 25.3447 112.388 24.3369 112.935 23.4385C113.49 22.54 114.22 21.8447 115.126 21.3525C116.04 20.8604 117.036 20.6143 118.115 20.6143C119.583 20.6143 120.818 20.9697 121.818 21.6807C122.826 22.3916 123.47 23.3877 123.751 24.6689L120.576 25.7471C120.474 25.1611 120.208 24.7002 119.779 24.3643C119.357 24.0205 118.841 23.8486 118.232 23.8486C117.536 23.8486 116.943 24.0908 116.451 24.5752C115.958 25.0596 115.712 25.7002 115.712 26.4971C115.712 27.3252 115.966 27.9893 116.474 28.4893C116.982 28.9814 117.607 29.2275 118.349 29.2275ZM125.251 32.2275V31.8408C125.728 30.9346 126.079 29.9424 126.306 28.8643C126.564 27.7861 126.693 26.2666 126.693 24.3057V20.8486H136.888V32.2275H133.408V24.0947H130.173V24.6689C130.173 26.2939 130.036 27.751 129.763 29.04C129.497 30.3213 129.154 31.3838 128.732 32.2275H125.251ZM147.798 20.8486H151.396L143.556 36.9854H139.947L142.994 30.7158L138.388 20.8486H142.115L144.869 26.8721L147.798 20.8486ZM153.025 32.2275V20.8486H161.615V23.9658H156.622V32.2275H153.025ZM163.337 32.2275V20.8486H166.818V28.3369L171.013 20.8486H175.724V32.2275H172.244V24.7393L168.036 32.2275H163.337Z" fill="white"/>
<rect x="1.453" y="1.22754" width="200.547" height="48" rx="24" stroke="white" stroke-width="1.19373"/>
</svg>
