<svg width="60" height="60" viewBox="0 0 60 60" fill="none" xmlns="http://www.w3.org/2000/svg">
<g clip-path="url(#clip0_332_50)">
<path d="M7.5 37.5C7.5 36.837 7.76339 36.2011 8.23223 35.7322C8.70107 35.2634 9.33696 35 10 35H15C15.663 35 16.2989 35.2634 16.7678 35.7322C17.2366 36.2011 17.5 36.837 17.5 37.5V42.5C17.5 43.163 17.2366 43.7989 16.7678 44.2678C16.2989 44.7366 15.663 45 15 45H10C9.33696 45 8.70107 44.7366 8.23223 44.2678C7.76339 43.7989 7.5 43.163 7.5 42.5V37.5Z" stroke="#2459FF" stroke-width="3.75" stroke-linecap="round" stroke-linejoin="round"/>
<path d="M42.5 37.5C42.5 36.837 42.7634 36.2011 43.2322 35.7322C43.7011 35.2634 44.337 35 45 35H50C50.663 35 51.2989 35.2634 51.7678 35.7322C52.2366 36.2011 52.5 36.837 52.5 37.5V42.5C52.5 43.163 52.2366 43.7989 51.7678 44.2678C51.2989 44.7366 50.663 45 50 45H45C44.337 45 43.7011 44.7366 43.2322 44.2678C42.7634 43.7989 42.5 43.163 42.5 42.5V37.5Z" stroke="#2459FF" stroke-width="3.75" stroke-linecap="round" stroke-linejoin="round"/>
<path d="M25 17.5C25 16.837 25.2634 16.2011 25.7322 15.7322C26.2011 15.2634 26.837 15 27.5 15H32.5C33.163 15 33.7989 15.2634 34.2678 15.7322C34.7366 16.2011 35 16.837 35 17.5V22.5C35 23.163 34.7366 23.7989 34.2678 24.2678C33.7989 24.7366 33.163 25 32.5 25H27.5C26.837 25 26.2011 24.7366 25.7322 24.2678C25.2634 23.7989 25 23.163 25 22.5V17.5Z" stroke="#2459FF" stroke-width="3.75" stroke-linecap="round" stroke-linejoin="round"/>
<path d="M25 21.25C21.6744 21.8037 18.6322 23.4616 16.3644 25.9562C14.0965 28.4509 12.7352 31.6368 12.5 35" stroke="#2459FF" stroke-width="3.75" stroke-linecap="round" stroke-linejoin="round"/>
<path d="M35 21.25C38.3256 21.8037 41.3678 23.4616 43.6356 25.9562C45.9035 28.4509 47.2648 31.6368 47.5 35" stroke="#2459FF" stroke-width="3.75" stroke-linecap="round" stroke-linejoin="round"/>
<path d="M25 20H10" stroke="#2459FF" stroke-width="3.75" stroke-linecap="round" stroke-linejoin="round"/>
<path d="M50 20H35" stroke="#2459FF" stroke-width="3.75" stroke-linecap="round" stroke-linejoin="round"/>
<path d="M5 20C5 20.663 5.26339 21.2989 5.73223 21.7678C6.20107 22.2366 6.83696 22.5 7.5 22.5C8.16304 22.5 8.79893 22.2366 9.26777 21.7678C9.73661 21.2989 10 20.663 10 20C10 19.337 9.73661 18.7011 9.26777 18.2322C8.79893 17.7634 8.16304 17.5 7.5 17.5C6.83696 17.5 6.20107 17.7634 5.73223 18.2322C5.26339 18.7011 5 19.337 5 20Z" stroke="#2459FF" stroke-width="3.75" stroke-linecap="round" stroke-linejoin="round"/>
<path d="M50 20C50 20.663 50.2634 21.2989 50.7322 21.7678C51.2011 22.2366 51.837 22.5 52.5 22.5C53.163 22.5 53.7989 22.2366 54.2678 21.7678C54.7366 21.2989 55 20.663 55 20C55 19.337 54.7366 18.7011 54.2678 18.2322C53.7989 17.7634 53.163 17.5 52.5 17.5C51.837 17.5 51.2011 17.7634 50.7322 18.2322C50.2634 18.7011 50 19.337 50 20Z" stroke="#2459FF" stroke-width="3.75" stroke-linecap="round" stroke-linejoin="round"/>
</g>
<defs>
<clipPath id="clip0_332_50">
<rect width="60" height="60" fill="white"/>
</clipPath>
</defs>
</svg>
