<svg width="65" height="46" viewBox="0 0 65 46" fill="none" xmlns="http://www.w3.org/2000/svg">
<path d="M22.3047 27.2422C21.276 25.9401 20.7617 24.1921 20.7617 21.998C20.7617 19.804 21.276 18.056 22.3047 16.7539C23.3333 15.4518 24.7201 14.8008 26.4648 14.8008C28.2096 14.8008 29.5931 15.4518 30.6152 16.7539C31.6439 18.056 32.1582 19.804 32.1582 21.998C32.1582 24.1921 31.6439 25.9401 30.6152 27.2422C29.5931 28.5443 28.2096 29.1953 26.4648 29.1953C24.7201 29.1953 23.3333 28.5443 22.3047 27.2422ZM29.1211 25.8164C29.7461 24.8268 30.0586 23.554 30.0586 21.998C30.0586 20.4421 29.7461 19.1693 29.1211 18.1797C28.4961 17.1901 27.6107 16.6953 26.4648 16.6953C25.2995 16.6953 24.4043 17.1901 23.7793 18.1797C23.1673 19.1497 22.8613 20.4225 22.8613 21.998C22.8613 23.5866 23.1673 24.8659 23.7793 25.8359C24.3978 26.8125 25.293 27.3008 26.4648 27.3008C27.6107 27.3008 28.4961 26.806 29.1211 25.8164ZM43.5059 14.9961V16.998H36.6113C36.6113 18.1048 36.4648 19.4329 36.1719 20.9824C36.543 20.5462 37.028 20.1947 37.627 19.9277C38.2324 19.6543 38.8672 19.5176 39.5312 19.5176C40.8854 19.5176 42.002 19.931 42.8809 20.7578C43.7663 21.5781 44.209 22.6914 44.209 24.0977C44.209 25.5951 43.7402 26.819 42.8027 27.7695C41.8717 28.7201 40.6087 29.1953 39.0137 29.1953C38.1217 29.1953 37.3014 29.0391 36.5527 28.7266C35.8105 28.4076 35.1888 27.9258 34.6875 27.2812C34.1927 26.6367 33.8997 25.875 33.8086 24.9961L35.9082 24.4004C36.0254 25.2728 36.3477 25.9596 36.875 26.4609C37.4023 26.9557 38.1152 27.2031 39.0137 27.2031C39.9642 27.2031 40.7161 26.9329 41.2695 26.3926C41.8294 25.8457 42.1094 25.1491 42.1094 24.3027C42.1094 23.4499 41.8359 22.7533 41.2891 22.2129C40.7487 21.6725 40.0228 21.4023 39.1113 21.4023C38.4928 21.4023 37.9199 21.5684 37.3926 21.9004C36.8652 22.2259 36.5039 22.6263 36.3086 23.1016L34.0137 22.584C34.4108 20.0645 34.6094 17.5352 34.6094 14.9961H43.5059Z" fill="#000014"/>
<rect x="0.5" y="0.5" width="64" height="45" rx="22.5" stroke="#000014"/>
</svg>
