<svg width="61" height="46" viewBox="0 0 61 46" fill="none" xmlns="http://www.w3.org/2000/svg">
<path d="M22.3047 27.2422C21.276 25.9401 20.7617 24.1921 20.7617 21.998C20.7617 19.804 21.276 18.056 22.3047 16.7539C23.3333 15.4518 24.7201 14.8008 26.4648 14.8008C28.2096 14.8008 29.5931 15.4518 30.6152 16.7539C31.6439 18.056 32.1582 19.804 32.1582 21.998C32.1582 24.1921 31.6439 25.9401 30.6152 27.2422C29.5931 28.5443 28.2096 29.1953 26.4648 29.1953C24.7201 29.1953 23.3333 28.5443 22.3047 27.2422ZM29.1211 25.8164C29.7461 24.8268 30.0586 23.554 30.0586 21.998C30.0586 20.4421 29.7461 19.1693 29.1211 18.1797C28.4961 17.1901 27.6107 16.6953 26.4648 16.6953C25.2995 16.6953 24.4043 17.1901 23.7793 18.1797C23.1673 19.1497 22.8613 20.4225 22.8613 21.998C22.8613 23.5866 23.1673 24.8659 23.7793 25.8359C24.3978 26.8125 25.293 27.3008 26.4648 27.3008C27.6107 27.3008 28.4961 26.806 29.1211 25.8164ZM37.2266 29V18.1016C37.0247 18.7201 36.569 19.2832 35.8594 19.791C35.1497 20.2923 34.4401 20.5625 33.7305 20.6016L33.3301 18.2969C34.4368 18.1797 35.3516 17.8444 36.0742 17.291C36.7969 16.7311 37.2493 15.9661 37.4316 14.9961H39.3262V29H37.2266Z" fill="#000014"/>
<rect x="0.5" y="0.5" width="60" height="45" rx="22.5" stroke="#000014" />
</svg>
