<svg width="50" height="50" viewBox="0 0 50 50" fill="none" xmlns="http://www.w3.org/2000/svg">
<path d="M20.357 33C19.031 32.995 17.8901 32.6756 16.9341 32.042C15.9833 31.4083 15.251 30.4905 14.737 29.2885C14.2282 28.0866 13.9764 26.6407 13.9815 24.951C13.9815 23.2662 14.2359 21.8304 14.7447 20.6436C15.2587 19.4567 15.991 18.554 16.9418 17.9354C17.8978 17.3118 19.0361 17 20.357 17C21.6778 17 22.8136 17.3118 23.7644 17.9354C24.7203 18.559 25.4553 19.4642 25.9692 20.6511C26.4832 21.8329 26.7376 23.2662 26.7324 24.951C26.7324 26.6458 26.4754 28.0941 25.9615 29.2961C25.4527 30.498 24.7229 31.4158 23.7721 32.0495C22.8213 32.6832 21.6829 33 20.357 33ZM20.357 30.2918C21.2615 30.2918 21.9836 29.8468 22.5232 28.9566C23.0629 28.0665 23.3301 26.7313 23.325 24.951C23.325 23.7792 23.2016 22.8036 22.9549 22.024C22.7134 21.2445 22.3691 20.6587 21.9219 20.2664C21.4799 19.8741 20.9583 19.678 20.357 19.678C19.4576 19.678 18.7381 20.118 18.1984 20.9981C17.6588 21.8782 17.3864 23.1958 17.3812 24.951C17.3812 26.1378 17.502 27.1286 17.7436 27.9231C17.9903 28.7127 18.3372 29.3061 18.7843 29.7034C19.2314 30.0957 19.7557 30.2918 20.357 30.2918Z" fill="#000014"/>
<path d="M35.9814 17.2112V32.6605H32.6434V20.3116H32.5509L28.9353 22.5295V19.6327L32.8438 17.2112H35.9814Z" fill="#000014"/>
<rect x="1" y="1" width="48" height="48" rx="24" stroke="#000014" stroke-width="1.17767"/>
</svg>
