<svg width="60" height="60" viewBox="0 0 60 60" fill="none" xmlns="http://www.w3.org/2000/svg">
<g clip-path="url(#clip0_332_76)">
<path d="M28.0425 48.46C28.757 50.3841 30.125 51.9958 31.9073 53.0136C33.6897 54.0314 35.773 54.3904 37.7932 54.0279C39.8134 53.6655 41.642 52.6046 42.9593 51.0307C44.2766 49.4568 44.999 47.47 45 45.4175V32.5L30 24.125" stroke="#2459FF" stroke-width="3.75" stroke-linecap="round" stroke-linejoin="round"/>
<path d="M13.035 37.535C11.7249 39.1158 11.0123 41.1069 11.0216 43.16C11.031 45.213 11.7619 47.1975 13.0863 48.7663C14.4108 50.335 16.2447 51.3883 18.2671 51.7417C20.2896 52.0952 22.3719 51.7265 24.15 50.7L35 44.365V27" stroke="#2459FF" stroke-width="3.75" stroke-linecap="round" stroke-linejoin="round"/>
<path d="M15 19.0749C11.5225 18.4849 8.03251 20.0624 6.16501 23.2974C5.01364 25.2919 4.70158 27.662 5.29745 29.8866C5.89332 32.1111 7.34833 34.008 9.34251 35.1599L20 41.4449L35 33.0749" stroke="#2459FF" stroke-width="3.75" stroke-linecap="round" stroke-linejoin="round"/>
<path d="M31.9575 11.54C31.243 9.61592 29.875 8.00415 28.0927 6.98639C26.3103 5.96862 24.227 5.60959 22.2068 5.97205C20.1866 6.33452 18.3581 7.39541 17.0407 8.96932C15.7234 10.5432 15.0011 12.53 15 14.5825V27.25L30 35.875" stroke="#2459FF" stroke-width="3.75" stroke-linecap="round" stroke-linejoin="round"/>
<path d="M46.965 22.4649C48.2751 20.8841 48.9878 18.893 48.9784 16.84C48.969 14.7869 48.2381 12.8024 46.9137 11.2336C45.5892 9.66487 43.7554 8.61165 41.7329 8.25816C39.7104 7.90467 37.6281 8.27342 35.85 9.29991L25 15.6349V32.9999" stroke="#2459FF" stroke-width="3.75" stroke-linecap="round" stroke-linejoin="round"/>
<path d="M45 40.755C48.4775 41.345 51.9675 39.7675 53.835 36.5325C54.9864 34.538 55.2984 32.1679 54.7026 29.9433C54.1067 27.7188 52.6517 25.8219 50.6575 24.67L39.8875 18.385L25 26.935" stroke="#2459FF" stroke-width="3.75" stroke-linecap="round" stroke-linejoin="round"/>
</g>
<defs>
<clipPath id="clip0_332_76">
<rect width="60" height="60" fill="white"/>
</clipPath>
</defs>
</svg>
