<svg width="65" height="46" viewBox="0 0 65 46" fill="none" xmlns="http://www.w3.org/2000/svg">
<path d="M22.3047 27.2422C21.276 25.9401 20.7617 24.1921 20.7617 21.998C20.7617 19.804 21.276 18.056 22.3047 16.7539C23.3333 15.4518 24.7201 14.8008 26.4648 14.8008C28.2096 14.8008 29.5931 15.4518 30.6152 16.7539C31.6439 18.056 32.1582 19.804 32.1582 21.998C32.1582 24.1921 31.6439 25.9401 30.6152 27.2422C29.5931 28.5443 28.2096 29.1953 26.4648 29.1953C24.7201 29.1953 23.3333 28.5443 22.3047 27.2422ZM29.1211 25.8164C29.7461 24.8268 30.0586 23.554 30.0586 21.998C30.0586 20.4421 29.7461 19.1693 29.1211 18.1797C28.4961 17.1901 27.6107 16.6953 26.4648 16.6953C25.2995 16.6953 24.4043 17.1901 23.7793 18.1797C23.1673 19.1497 22.8613 20.4225 22.8613 21.998C22.8613 23.5866 23.1673 24.8659 23.7793 25.8359C24.3978 26.8125 25.293 27.3008 26.4648 27.3008C27.6107 27.3008 28.4961 26.806 29.1211 25.8164ZM33.6914 22.0957C33.6914 21.2819 33.763 20.5137 33.9062 19.791C34.056 19.0618 34.2806 18.3945 34.5801 17.7891C34.8861 17.1771 35.2572 16.6497 35.6934 16.207C36.1296 15.7643 36.6504 15.4193 37.2559 15.1719C37.8678 14.9245 38.5384 14.8008 39.2676 14.8008C40.6217 14.8008 41.7057 15.1263 42.5195 15.7773C43.3398 16.4284 43.8509 17.3431 44.0527 18.5215L42.0508 19.1562C41.8815 18.3034 41.5658 17.6816 41.1035 17.291C40.6413 16.8939 39.9967 16.6953 39.1699 16.6953C38.7207 16.6953 38.2975 16.7962 37.9004 16.998C37.5098 17.1934 37.1517 17.4896 36.8262 17.8867C36.5072 18.2773 36.2533 18.8014 36.0645 19.459C35.8822 20.11 35.791 20.8555 35.791 21.6953V21.998C36.097 21.4186 36.5885 20.9401 37.2656 20.5625C37.9427 20.1849 38.6654 19.9961 39.4336 19.9961C40.1107 19.9961 40.7324 20.123 41.2988 20.377C41.8717 20.6309 42.3405 20.9661 42.7051 21.3828C43.0762 21.7995 43.3626 22.2715 43.5645 22.7988C43.7663 23.3197 43.8672 23.8535 43.8672 24.4004C43.8672 25.8132 43.418 26.9655 42.5195 27.8574C41.6211 28.7493 40.4915 29.1953 39.1309 29.1953C37.972 29.1953 36.9759 28.8861 36.1426 28.2676C35.3158 27.6491 34.7005 26.8125 34.2969 25.7578C33.8932 24.7031 33.6914 23.4824 33.6914 22.0957ZM41.7676 24.5957C41.7676 23.7949 41.5039 23.1471 40.9766 22.6523C40.4557 22.151 39.7721 21.9004 38.9258 21.9004C38.2096 21.9004 37.5911 22.151 37.0703 22.6523C36.5495 23.1536 36.2891 23.7689 36.2891 24.498C36.2891 25.2988 36.556 25.9466 37.0898 26.4414C37.6367 26.9492 38.3171 27.2031 39.1309 27.2031C39.8861 27.2031 40.5111 26.9557 41.0059 26.4609C41.5137 25.9531 41.7676 25.3314 41.7676 24.5957Z" fill="#000014"/>
<rect x="0.5" y="0.5" width="64" height="45" rx="22.5" stroke="#000014"/>
</svg>
