<svg width="65" height="46" viewBox="0 0 65 46" fill="none" xmlns="http://www.w3.org/2000/svg">
<path d="M22.3047 27.2422C21.276 25.9401 20.7617 24.1921 20.7617 21.998C20.7617 19.804 21.276 18.056 22.3047 16.7539C23.3333 15.4518 24.7201 14.8008 26.4648 14.8008C28.2096 14.8008 29.5931 15.4518 30.6152 16.7539C31.6439 18.056 32.1582 19.804 32.1582 21.998C32.1582 24.1921 31.6439 25.9401 30.6152 27.2422C29.5931 28.5443 28.2096 29.1953 26.4648 29.1953C24.7201 29.1953 23.3333 28.5443 22.3047 27.2422ZM29.1211 25.8164C29.7461 24.8268 30.0586 23.554 30.0586 21.998C30.0586 20.4421 29.7461 19.1693 29.1211 18.1797C28.4961 17.1901 27.6107 16.6953 26.4648 16.6953C25.2995 16.6953 24.4043 17.1901 23.7793 18.1797C23.1673 19.1497 22.8613 20.4225 22.8613 21.998C22.8613 23.5866 23.1673 24.8659 23.7793 25.8359C24.3978 26.8125 25.293 27.3008 26.4648 27.3008C27.6107 27.3008 28.4961 26.806 29.1211 25.8164ZM39.9121 29V25.6016H33.6133V23.4043C34.0625 22.9355 34.4368 22.5189 34.7363 22.1543C35.0423 21.7897 35.3092 21.4186 35.5371 21.041C35.765 20.6569 35.944 20.3053 36.0742 19.9863C36.2044 19.6608 36.3086 19.2767 36.3867 18.834C36.4714 18.3913 36.5267 17.9551 36.5527 17.5254C36.5788 17.0892 36.5983 16.5488 36.6113 15.9043V14.9961H38.7109V15.9043C38.7109 17.571 38.5091 19.0098 38.1055 20.2207C37.7018 21.4121 36.9368 22.571 35.8105 23.6973H39.9121V19.3223H42.0117V23.6973H44.3066V25.6016H42.0117V29H39.9121Z" fill="#000014"/>
<rect x="0.5" y="0.5" width="64" height="45" rx="22.5" stroke="#000014"/>
</svg>
