<svg width="65" height="46" viewBox="0 0 65 46" fill="none" xmlns="http://www.w3.org/2000/svg">
<path d="M22.3047 27.2422C21.276 25.9401 20.7617 24.1921 20.7617 21.998C20.7617 19.804 21.276 18.056 22.3047 16.7539C23.3333 15.4518 24.7201 14.8008 26.4648 14.8008C28.2096 14.8008 29.5931 15.4518 30.6152 16.7539C31.6439 18.056 32.1582 19.804 32.1582 21.998C32.1582 24.1921 31.6439 25.9401 30.6152 27.2422C29.5931 28.5443 28.2096 29.1953 26.4648 29.1953C24.7201 29.1953 23.3333 28.5443 22.3047 27.2422ZM29.1211 25.8164C29.7461 24.8268 30.0586 23.554 30.0586 21.998C30.0586 20.4421 29.7461 19.1693 29.1211 18.1797C28.4961 17.1901 27.6107 16.6953 26.4648 16.6953C25.2995 16.6953 24.4043 17.1901 23.7793 18.1797C23.1673 19.1497 22.8613 20.4225 22.8613 21.998C22.8613 23.5866 23.1673 24.8659 23.7793 25.8359C24.3978 26.8125 25.293 27.3008 26.4648 27.3008C27.6107 27.3008 28.4961 26.806 29.1211 25.8164ZM37.5879 23.4043C37.7637 23.3066 38.125 23.1178 38.6719 22.8379C39.4727 22.4342 40.026 22.1283 40.332 21.9199C41.237 21.3145 41.6895 20.4941 41.6895 19.459C41.6895 18.6452 41.416 17.9811 40.8691 17.4668C40.3223 16.9525 39.5964 16.6953 38.6914 16.6953C37.8581 16.6953 37.1647 16.9557 36.6113 17.4766C36.0645 17.9974 35.791 18.6257 35.791 19.3613C35.791 20.0579 36.0579 20.7057 36.5918 21.3047L34.7852 22.4961C34.056 21.5911 33.6914 20.5592 33.6914 19.4004C33.6914 18.7754 33.8151 18.1829 34.0625 17.623C34.3164 17.0566 34.6615 16.5684 35.0977 16.1582C35.5404 15.7415 36.0807 15.4128 36.7188 15.1719C37.3633 14.9245 38.0534 14.8008 38.7891 14.8008C40.3451 14.8008 41.5658 15.2207 42.4512 16.0605C43.3431 16.9004 43.7891 17.9941 43.7891 19.3418C43.7891 20.0449 43.6621 20.6829 43.4082 21.2559C43.1543 21.8223 42.8158 22.3073 42.3926 22.7109C41.9694 23.1146 41.4355 23.5052 40.791 23.8828L39.707 24.459C38.7826 24.9473 38.0762 25.3672 37.5879 25.7188C37.1191 26.0638 36.8262 26.4902 36.709 26.998H43.7891V29H33.9941C33.9941 27.5872 34.3132 26.4544 34.9512 25.6016C35.6087 24.7487 36.4876 24.0163 37.5879 23.4043Z" fill="#000014"/>
<rect x="0.5" y="0.5" width="64" height="45" rx="22.5" stroke="#000014"/>
</svg>
